<svg width="22" height="23" viewBox="0 0 22 23" fill="none" xmlns="http://www.w3.org/2000/svg">
<path d="M6.63377 6.08784C6.92338 6.08784 7.15816 5.85307 7.15816 5.56345C7.15816 5.27384 6.92338 5.03906 6.63377 5.03906C6.34415 5.03906 6.10938 5.27384 6.10938 5.56345C6.10938 5.85307 6.34415 6.08784 6.63377 6.08784Z" fill="white"/>
<path d="M3.82199 3.41492V2.68359C3.4238 3.10511 3.1927 3.65718 3.17188 4.23666C3.51669 4.23553 3.85312 4.13025 4.13708 3.93463C4.04274 3.88427 3.9637 3.80944 3.90826 3.71799C3.85282 3.62654 3.82302 3.52186 3.82199 3.41492Z" fill="white"/>
<path d="M4.39158 6.08784C4.68119 6.08784 4.91597 5.85307 4.91597 5.56345C4.91597 5.27384 4.68119 5.03906 4.39158 5.03906C4.10197 5.03906 3.86719 5.27384 3.86719 5.56345C3.86719 5.85307 4.10197 6.08784 4.39158 6.08784Z" fill="white"/>
<path d="M7.86311 6.09993V3.65364C7.39045 3.72183 6.0329 3.91575 5.02868 3.98334C4.85815 4.15605 4.66942 4.30979 4.46579 4.44186C4.68055 4.4565 4.88663 4.53229 5.05971 4.66028C5.23279 4.78827 5.36563 4.96311 5.44255 5.16416C5.48866 5.15995 5.53506 5.15995 5.58117 5.16416C5.6781 4.90974 5.86396 4.69906 6.10431 4.57115C6.34466 4.44325 6.62322 4.40678 6.88839 4.4685C7.15357 4.53022 7.38739 4.68595 7.54656 4.90685C7.70572 5.12774 7.77944 5.39883 7.75406 5.66991C7.72868 5.94099 7.60592 6.19369 7.40852 6.3812C7.21112 6.56871 6.95245 6.67833 6.68042 6.68976C6.4084 6.70118 6.14145 6.61364 5.92902 6.44334C5.71659 6.27304 5.57307 6.03153 5.52505 5.76353C5.51627 5.76278 5.50745 5.76278 5.49867 5.76353C5.46801 5.93528 5.39785 6.09754 5.29374 6.23753C5.18962 6.37752 5.0544 6.49139 4.89873 6.57016C4.74307 6.64894 4.57123 6.69046 4.39677 6.69144C4.22232 6.69243 4.05002 6.65286 3.89347 6.57585C3.73693 6.49884 3.60043 6.3865 3.49474 6.2477C3.38905 6.1089 3.31706 5.94744 3.28446 5.77605C3.25186 5.60466 3.25953 5.42804 3.30688 5.26013C3.35423 5.09222 3.43996 4.93761 3.5573 4.80851C3.43684 4.82931 3.31482 4.83981 3.19258 4.83992C3.18828 4.83992 3.17969 4.83992 3.17969 4.83966V6.09993C3.18064 6.72769 3.42785 7.33001 3.86818 7.77743C4.08117 8.00053 4.33719 8.17811 4.62077 8.29944C4.90434 8.42077 5.20958 8.48333 5.51803 8.48333C5.82647 8.48333 6.13171 8.42077 6.41528 8.29944C6.69886 8.17811 6.95489 8.00053 7.16788 7.77743C7.61005 7.33068 7.85962 6.7285 7.86311 6.09993ZM4.12483 8.73555V9.12515C4.51964 9.42708 5.00287 9.59064 5.4999 9.59056C5.99693 9.59049 6.48011 9.42678 6.87483 9.12472V8.7392C6.45211 8.96673 5.97943 9.08552 5.49937 9.08488C5.01931 9.08425 4.54694 8.9642 4.12483 8.73555ZM8.60986 2.00669L7.09238 2.24521C6.69367 2.30844 6.28608 2.28648 5.89647 2.18075L5.0279 1.94627C4.98706 1.93529 4.94495 1.92971 4.90265 1.92969C4.77727 1.93016 4.65707 1.97978 4.56787 2.0679C4.47868 2.15602 4.4276 2.2756 4.42561 2.40097V3.40523C5.45686 3.40291 7.62678 3.07751 7.88051 3.03914C8.29404 2.89786 8.53136 2.46306 8.60986 2.00669Z" fill="white"/>
<path d="M8.34387 9.56534H7.28487C6.77822 9.96208 6.15326 10.1777 5.50976 10.1777C4.86626 10.1777 4.24131 9.96208 3.73466 9.56534H2.68382C1.99855 9.56534 1.41963 10.1239 1.41963 10.8092V12.8739H9.5837V10.8092C9.58403 10.4799 9.45364 10.1639 9.22117 9.9307C8.9887 9.69748 8.67316 9.56607 8.34387 9.56534ZM14.291 10.4969C14.291 10.4914 14.2913 10.4861 14.2914 10.4807C14.0284 10.7117 13.8159 10.9946 13.6673 11.3115C13.5186 11.6285 13.4369 11.9727 13.4273 12.3226C13.7725 12.3068 14.3932 12.1887 14.9697 11.6194C14.7651 11.5118 14.5937 11.3504 14.4741 11.1526C14.3545 10.9548 14.2912 10.7281 14.291 10.4969ZM15.5594 11.1552H19.1586C19.017 10.4247 18.3503 9.82316 17.5515 9.82316H15.5594C15.3828 9.82316 15.2134 9.89333 15.0885 10.0182C14.9636 10.1431 14.8934 10.3125 14.8934 10.4892C14.8934 10.6658 14.9636 10.8352 15.0885 10.9601C15.2134 11.085 15.3828 11.1552 15.5594 11.1552ZM15.9552 16.9047C16.289 16.9038 16.6191 16.8355 16.9258 16.7038C17.2325 16.5721 17.5094 16.3797 17.7398 16.1382C18.2153 15.6516 18.4805 14.9976 18.4782 14.3173V11.7568H15.6487C14.8657 12.745 13.9235 12.9055 13.4079 12.9237V14.3173C13.4107 14.9993 13.6806 15.653 14.1599 16.1382C14.3924 16.3799 14.6712 16.5723 14.9796 16.704C15.288 16.8357 15.6198 16.9039 15.9552 16.9047ZM13.1091 18.0302C12.6761 18.03 12.2607 18.2017 11.9542 18.5076C11.6476 18.8135 11.4751 19.2285 11.4743 19.6615V21.081H15.6853V19.6916L14.3532 18.0302H13.1091ZM17.2321 17.2278C16.8303 17.4124 16.3931 17.5074 15.9508 17.5062C15.5506 17.5043 15.1543 17.4266 14.7829 17.2772V17.6215L15.9766 19.1106L17.2321 17.6177V17.2278ZM18.9281 18.0302H17.6723L16.2868 19.6956V21.081H20.5837V19.6615C20.5837 18.7607 19.8292 18.0302 18.9281 18.0302ZM17.8767 2.57368V1.88335C17.8791 1.82992 17.8666 1.77686 17.8406 1.73012C17.8146 1.68338 17.7761 1.6448 17.7294 1.61869C17.6828 1.59259 17.6297 1.57999 17.5763 1.5823C17.5229 1.58462 17.4711 1.60176 17.4269 1.63181L16.0099 2.5629C15.9683 2.59049 15.9342 2.62798 15.9108 2.67202C15.8873 2.71605 15.8751 2.76523 15.8754 2.81514C15.8756 2.86504 15.8883 2.91409 15.9123 2.95787C15.9362 3.00165 15.9707 3.03879 16.0126 3.06593L17.4322 3.99698C17.4812 4.02915 17.5385 4.04628 17.5972 4.04627C17.6437 4.04622 17.6893 4.03375 17.7294 4.01013C17.7759 3.98376 17.8142 3.94512 17.8401 3.89845C17.8661 3.85177 17.8787 3.79886 17.8767 3.74548V3.18564C19.3806 3.50654 20.3059 4.87161 20.3059 6.0453C20.3059 6.90897 19.8195 7.82679 19.0586 8.38409C18.9942 8.43184 18.9514 8.50321 18.9396 8.5825C18.9279 8.6618 18.9481 8.74252 18.9958 8.8069C19.0436 8.87129 19.1149 8.91407 19.1942 8.92584C19.2735 8.9376 19.3543 8.91739 19.4186 8.86964C20.3431 8.19254 20.9177 7.11041 20.9177 6.04552C20.9177 5.26636 20.5892 4.44854 20.0346 3.80173C19.4822 3.15124 18.718 2.71639 17.8767 2.57368ZM5.99078 19.9319L4.57113 19.0009C4.52775 18.9712 4.47692 18.9542 4.4244 18.9519C4.37188 18.9496 4.31976 18.962 4.27392 18.9877C4.22747 19.0141 4.18916 19.0528 4.16319 19.0994C4.13722 19.1461 4.12459 19.199 4.12666 19.2524V19.8122C2.62276 19.4913 1.69747 18.1263 1.69747 16.9526C1.69747 16.0891 2.18383 15.1711 2.94477 14.6138C3.00699 14.5654 3.04781 14.4945 3.05849 14.4164C3.06917 14.3383 3.04888 14.2591 3.00194 14.1957C2.955 14.1323 2.88514 14.0899 2.8073 14.0773C2.72945 14.0648 2.64979 14.0832 2.58533 14.1286C1.6609 14.8057 1.08594 15.8879 1.08594 16.9527C1.08594 17.7319 1.4143 18.5497 1.96895 19.1965C2.52134 19.8469 3.28538 20.2816 4.12666 20.4242V21.1145C4.12458 21.1679 4.13721 21.2208 4.16318 21.2675C4.18915 21.3142 4.22746 21.3528 4.27392 21.3792C4.31588 21.4028 4.36324 21.4153 4.41142 21.4153C4.46921 21.4153 4.5257 21.3982 4.57375 21.3661L5.99207 20.435C6.03372 20.4075 6.06789 20.3701 6.09148 20.3261C6.11508 20.2822 6.12737 20.233 6.12723 20.1831C6.1271 20.1332 6.11456 20.0841 6.09073 20.0403C6.0669 19.9964 6.03258 19.9592 5.99078 19.9319Z" fill="white"/>
</svg>
