<svg width="24" height="25" viewBox="0 0 24 25" fill="none" xmlns="http://www.w3.org/2000/svg">
<path d="M19.7463 13.5014C20.4485 12.492 20.8725 11.3154 20.9754 10.09C21.0784 8.86463 20.8567 7.63376 20.3328 6.52128C19.8088 5.40881 19.001 4.45398 17.9908 3.75293C16.9805 3.05187 15.8034 2.62932 14.5779 2.5278C13.3524 2.42629 12.1218 2.64939 11.0099 3.17466C9.89806 3.69993 8.94419 4.50882 8.24432 5.51992C7.54446 6.53102 7.12329 7.70864 7.02322 8.93425C6.92315 10.1599 7.1477 11.3902 7.67428 12.5014" stroke="white" stroke-width="1.5" stroke-linecap="round" stroke-linejoin="round"/>
<path d="M14 6.5C12.895 6.5 12 7.172 12 8C12 8.828 12.895 9.5 14 9.5C15.105 9.5 16 10.172 16 11C16 11.828 15.105 12.5 14 12.5M14 6.5C14.87 6.5 15.612 6.917 15.886 7.5M14 6.5V5.5M14 12.5C13.13 12.5 12.388 12.083 12.114 11.5M14 12.5V13.5M3 14.5H5.395C5.689 14.5 5.979 14.566 6.242 14.694L8.284 15.682C8.547 15.809 8.837 15.875 9.132 15.875H10.174C11.182 15.875 12 16.666 12 17.642C12 17.682 11.973 17.716 11.934 17.727L9.393 18.43C8.93705 18.556 8.45087 18.5119 8.025 18.306L5.842 17.25M12 17L16.593 15.589C16.9929 15.4663 17.4213 15.4731 17.817 15.6083C18.2128 15.7435 18.5558 16.0003 18.797 16.342C19.166 16.852 19.016 17.584 18.478 17.894L10.963 22.231C10.728 22.367 10.4678 22.4537 10.1982 22.4858C9.92866 22.518 9.65537 22.4949 9.395 22.418L3 20.52" stroke="white" stroke-width="1.5" stroke-linecap="round" stroke-linejoin="round"/>
</svg>
