<svg width="1440" height="933" viewBox="0 0 1440 933" fill="none" xmlns="http://www.w3.org/2000/svg">
<g clip-path="url(#clip0_66_13754)">
<path d="M1527.71 -73.8506H-85.2903V1001.6H1527.71V-73.8506Z" fill="url(#paint0_linear_66_13754)"/>
<g opacity="0.5">
<path opacity="0.5" d="M5.5108 13.089C7.62505 13.089 9.33899 11.3749 9.33899 9.26037C9.33899 7.14589 7.62505 5.43176 5.5108 5.43176C3.39655 5.43176 1.68262 7.14589 1.68262 9.26037C1.68262 11.3749 3.39655 13.089 5.5108 13.089Z" fill="white"/>
<path opacity="0.5" d="M38.4158 13.089C40.5301 13.089 42.244 11.3749 42.244 9.26037C42.244 7.14589 40.5301 5.43176 38.4158 5.43176C36.3016 5.43176 34.5876 7.14589 34.5876 9.26037C34.5876 11.3749 36.3016 13.089 38.4158 13.089Z" fill="white"/>
<path opacity="0.5" d="M75.1708 9.26037C75.1708 11.3683 73.4502 13.089 71.3426 13.089C69.2349 13.089 67.5144 11.3683 67.5144 9.26037C67.5144 7.15248 69.2349 5.43176 71.3426 5.43176C73.4502 5.45327 75.1708 7.15248 75.1708 9.26037Z" fill="white"/>
<path opacity="0.5" d="M104.248 13.089C106.362 13.089 108.076 11.3749 108.076 9.26037C108.076 7.14589 106.362 5.43176 104.248 5.43176C102.134 5.43176 100.42 7.14589 100.42 9.26037C100.42 11.3749 102.134 13.089 104.248 13.089Z" fill="white"/>
<path opacity="0.5" d="M137.174 13.089C139.289 13.089 141.003 11.3749 141.003 9.26037C141.003 7.14589 139.289 5.43176 137.174 5.43176C135.06 5.43176 133.346 7.14589 133.346 9.26037C133.346 11.3749 135.06 13.089 137.174 13.089Z" fill="white"/>
<path opacity="0.5" d="M170.08 13.089C172.194 13.089 173.908 11.3749 173.908 9.26037C173.908 7.14589 172.194 5.43176 170.08 5.43176C167.966 5.43176 166.252 7.14589 166.252 9.26037C166.252 11.3749 167.966 13.089 170.08 13.089Z" fill="white"/>
<path opacity="0.5" d="M203.006 13.089C205.121 13.089 206.835 11.3749 206.835 9.26037C206.835 7.14589 205.121 5.43176 203.006 5.43176C200.892 5.43176 199.178 7.14589 199.178 9.26037C199.178 11.3749 200.892 13.089 203.006 13.089Z" fill="white"/>
<path opacity="0.5" d="M5.5108 46.0194C7.62505 46.0194 9.33899 44.3053 9.33899 42.1908C9.33899 40.0763 7.62505 38.3622 5.5108 38.3622C3.39655 38.3622 1.68262 40.0763 1.68262 42.1908C1.68262 44.3053 3.39655 46.0194 5.5108 46.0194Z" fill="white"/>
<path opacity="0.5" d="M38.4158 46.0194C40.5301 46.0194 42.244 44.3053 42.244 42.1908C42.244 40.0763 40.5301 38.3622 38.4158 38.3622C36.3016 38.3622 34.5876 40.0763 34.5876 42.1908C34.5876 44.3053 36.3016 46.0194 38.4158 46.0194Z" fill="white"/>
<path opacity="0.5" d="M75.1708 42.1908C75.1708 44.2987 73.4502 46.0194 71.3426 46.0194C69.2349 46.0194 67.5144 44.2987 67.5144 42.1908C67.5144 40.0829 69.2349 38.3622 71.3426 38.3622C73.4502 38.3622 75.1708 40.0829 75.1708 42.1908Z" fill="white"/>
<path opacity="0.5" d="M104.248 46.0194C106.362 46.0194 108.076 44.3053 108.076 42.1908C108.076 40.0763 106.362 38.3622 104.248 38.3622C102.134 38.3622 100.42 40.0763 100.42 42.1908C100.42 44.3053 102.134 46.0194 104.248 46.0194Z" fill="white"/>
<path opacity="0.5" d="M137.174 46.0194C139.289 46.0194 141.003 44.3053 141.003 42.1908C141.003 40.0763 139.289 38.3622 137.174 38.3622C135.06 38.3622 133.346 40.0763 133.346 42.1908C133.346 44.3053 135.06 46.0194 137.174 46.0194Z" fill="white"/>
<path opacity="0.5" d="M170.08 46.0194C172.194 46.0194 173.908 44.3053 173.908 42.1908C173.908 40.0763 172.194 38.3622 170.08 38.3622C167.966 38.3622 166.252 40.0763 166.252 42.1908C166.252 44.3053 167.966 46.0194 170.08 46.0194Z" fill="white"/>
<path opacity="0.5" d="M203.006 46.0194C205.121 46.0194 206.835 44.3053 206.835 42.1908C206.835 40.0763 205.121 38.3622 203.006 38.3622C200.892 38.3622 199.178 40.0763 199.178 42.1908C199.178 44.3053 200.892 46.0194 203.006 46.0194Z" fill="white"/>
<path opacity="0.5" d="M5.5108 78.9282C7.62505 78.9282 9.33899 77.2141 9.33899 75.0996C9.33899 72.9851 7.62505 71.271 5.5108 71.271C3.39655 71.271 1.68262 72.9851 1.68262 75.0996C1.68262 77.2141 3.39655 78.9282 5.5108 78.9282Z" fill="white"/>
<path opacity="0.5" d="M38.4158 78.9282C40.5301 78.9282 42.244 77.2141 42.244 75.0996C42.244 72.9851 40.5301 71.271 38.4158 71.271C36.3016 71.271 34.5876 72.9851 34.5876 75.0996C34.5876 77.2141 36.3016 78.9282 38.4158 78.9282Z" fill="white"/>
<path opacity="0.5" d="M75.1708 75.0996C75.1708 77.2075 73.4502 78.9282 71.3426 78.9282C69.2349 78.9282 67.5144 77.2075 67.5144 75.0996C67.5144 72.9917 69.2349 71.271 71.3426 71.271C73.4502 71.2925 75.1708 72.9917 75.1708 75.0996Z" fill="white"/>
<path opacity="0.5" d="M104.248 78.9282C106.362 78.9282 108.076 77.2141 108.076 75.0996C108.076 72.9851 106.362 71.271 104.248 71.271C102.134 71.271 100.42 72.9851 100.42 75.0996C100.42 77.2141 102.134 78.9282 104.248 78.9282Z" fill="white"/>
<path opacity="0.5" d="M137.174 78.9282C139.289 78.9282 141.003 77.2141 141.003 75.0996C141.003 72.9851 139.289 71.271 137.174 71.271C135.06 71.271 133.346 72.9851 133.346 75.0996C133.346 77.2141 135.06 78.9282 137.174 78.9282Z" fill="white"/>
<path opacity="0.5" d="M170.08 78.9282C172.194 78.9282 173.908 77.2141 173.908 75.0996C173.908 72.9851 172.194 71.271 170.08 71.271C167.966 71.271 166.252 72.9851 166.252 75.0996C166.252 77.2141 167.966 78.9282 170.08 78.9282Z" fill="white"/>
<path opacity="0.5" d="M203.006 78.9282C205.121 78.9282 206.835 77.2141 206.835 75.0996C206.835 72.9851 205.121 71.271 203.006 71.271C200.892 71.271 199.178 72.9851 199.178 75.0996C199.178 77.2141 200.892 78.9282 203.006 78.9282Z" fill="white"/>
<path opacity="0.5" d="M5.5108 111.859C7.62505 111.859 9.33899 110.145 9.33899 108.03C9.33899 105.916 7.62505 104.201 5.5108 104.201C3.39655 104.201 1.68262 105.916 1.68262 108.03C1.68262 110.145 3.39655 111.859 5.5108 111.859Z" fill="white"/>
<path opacity="0.5" d="M38.4158 111.859C40.5301 111.859 42.244 110.145 42.244 108.03C42.244 105.916 40.5301 104.201 38.4158 104.201C36.3016 104.201 34.5876 105.916 34.5876 108.03C34.5876 110.145 36.3016 111.859 38.4158 111.859Z" fill="white"/>
<path opacity="0.5" d="M75.1708 108.03C75.1708 110.138 73.4502 111.859 71.3426 111.859C69.2349 111.859 67.5144 110.138 67.5144 108.03C67.5144 105.922 69.2349 104.201 71.3426 104.201C73.4502 104.201 75.1708 105.922 75.1708 108.03Z" fill="white"/>
<path opacity="0.5" d="M104.248 111.859C106.362 111.859 108.076 110.145 108.076 108.03C108.076 105.916 106.362 104.201 104.248 104.201C102.134 104.201 100.42 105.916 100.42 108.03C100.42 110.145 102.134 111.859 104.248 111.859Z" fill="white"/>
<path opacity="0.5" d="M137.174 111.859C139.289 111.859 141.003 110.145 141.003 108.03C141.003 105.916 139.289 104.201 137.174 104.201C135.06 104.201 133.346 105.916 133.346 108.03C133.346 110.145 135.06 111.859 137.174 111.859Z" fill="white"/>
<path opacity="0.5" d="M170.08 111.859C172.194 111.859 173.908 110.145 173.908 108.03C173.908 105.916 172.194 104.201 170.08 104.201C167.966 104.201 166.252 105.916 166.252 108.03C166.252 110.145 167.966 111.859 170.08 111.859Z" fill="white"/>
<path opacity="0.5" d="M203.006 111.859C205.121 111.859 206.835 110.145 206.835 108.03C206.835 105.916 205.121 104.201 203.006 104.201C200.892 104.201 199.178 105.916 199.178 108.03C199.178 110.145 200.892 111.859 203.006 111.859Z" fill="white"/>
<path opacity="0.5" d="M5.5108 144.789C7.62505 144.789 9.33899 143.075 9.33899 140.96C9.33899 138.846 7.62505 137.132 5.5108 137.132C3.39655 137.132 1.68262 138.846 1.68262 140.96C1.68262 143.075 3.39655 144.789 5.5108 144.789Z" fill="white"/>
<path opacity="0.5" d="M38.4158 144.789C40.5301 144.789 42.244 143.075 42.244 140.96C42.244 138.846 40.5301 137.132 38.4158 137.132C36.3016 137.132 34.5876 138.846 34.5876 140.96C34.5876 143.075 36.3016 144.789 38.4158 144.789Z" fill="white"/>
<path opacity="0.5" d="M75.1708 140.96C75.1708 143.068 73.4502 144.789 71.3426 144.789C69.2349 144.789 67.5144 143.068 67.5144 140.96C67.5144 138.852 69.2349 137.132 71.3426 137.132C73.4502 137.132 75.1708 138.831 75.1708 140.96Z" fill="white"/>
<path opacity="0.5" d="M104.248 144.789C106.362 144.789 108.076 143.075 108.076 140.96C108.076 138.846 106.362 137.132 104.248 137.132C102.134 137.132 100.42 138.846 100.42 140.96C100.42 143.075 102.134 144.789 104.248 144.789Z" fill="white"/>
<path opacity="0.5" d="M137.174 144.789C139.289 144.789 141.003 143.075 141.003 140.96C141.003 138.846 139.289 137.132 137.174 137.132C135.06 137.132 133.346 138.846 133.346 140.96C133.346 143.075 135.06 144.789 137.174 144.789Z" fill="white"/>
<path opacity="0.5" d="M170.08 144.789C172.194 144.789 173.908 143.075 173.908 140.96C173.908 138.846 172.194 137.132 170.08 137.132C167.966 137.132 166.252 138.846 166.252 140.96C166.252 143.075 167.966 144.789 170.08 144.789Z" fill="white"/>
<path opacity="0.5" d="M203.006 144.789C205.121 144.789 206.835 143.075 206.835 140.96C206.835 138.846 205.121 137.132 203.006 137.132C200.892 137.132 199.178 138.846 199.178 140.96C199.178 143.075 200.892 144.789 203.006 144.789Z" fill="white"/>
</g>
<g opacity="0.5">
<path opacity="0.5" d="M1283.78 552.493C1285.9 552.493 1287.61 550.779 1287.61 548.665C1287.61 546.55 1285.9 544.836 1283.78 544.836C1281.67 544.836 1279.95 546.55 1279.95 548.665C1279.95 550.779 1281.67 552.493 1283.78 552.493Z" fill="white"/>
<path opacity="0.5" d="M1283.78 585.424C1285.9 585.424 1287.61 583.709 1287.61 581.595C1287.61 579.48 1285.9 577.766 1283.78 577.766C1281.67 577.766 1279.95 579.48 1279.95 581.595C1279.95 583.709 1281.67 585.424 1283.78 585.424Z" fill="white"/>
<path opacity="0.5" d="M1283.78 618.332C1285.9 618.332 1287.61 616.618 1287.61 614.504C1287.61 612.389 1285.9 610.675 1283.78 610.675C1281.67 610.675 1279.95 612.389 1279.95 614.504C1279.95 616.618 1281.67 618.332 1283.78 618.332Z" fill="white"/>
<path opacity="0.5" d="M1283.78 651.263C1285.9 651.263 1287.61 649.549 1287.61 647.434C1287.61 645.32 1285.9 643.605 1283.78 643.605C1281.67 643.605 1279.95 645.32 1279.95 647.434C1279.95 649.549 1281.67 651.263 1283.78 651.263Z" fill="white"/>
<path opacity="0.5" d="M1283.78 684.172C1285.9 684.172 1287.61 682.457 1287.61 680.343C1287.61 678.229 1285.9 676.514 1283.78 676.514C1281.67 676.514 1279.95 678.229 1279.95 680.343C1279.95 682.457 1281.67 684.172 1283.78 684.172Z" fill="white"/>
<path opacity="0.5" d="M1283.78 717.102C1285.9 717.102 1287.61 715.388 1287.61 713.273C1287.61 711.159 1285.9 709.445 1283.78 709.445C1281.67 709.445 1279.95 711.159 1279.95 713.273C1279.95 715.388 1281.67 717.102 1283.78 717.102Z" fill="white"/>
<path opacity="0.5" d="M1283.78 750.011C1285.9 750.011 1287.61 748.297 1287.61 746.182C1287.61 744.068 1285.9 742.354 1283.78 742.354C1281.67 742.354 1279.95 744.068 1279.95 746.182C1279.95 748.297 1281.67 750.011 1283.78 750.011Z" fill="white"/>
<path opacity="0.5" d="M1283.78 782.92C1281.67 782.92 1279.95 781.199 1279.95 779.091C1279.95 776.983 1281.67 775.262 1283.78 775.262C1285.89 775.262 1287.61 776.983 1287.61 779.091C1287.61 781.22 1285.89 782.92 1283.78 782.92Z" fill="white"/>
<path opacity="0.5" d="M1250.88 552.493C1248.77 552.493 1247.05 550.772 1247.05 548.665C1247.05 546.557 1248.77 544.836 1250.88 544.836C1252.98 544.836 1254.7 546.557 1254.7 548.665C1254.68 550.772 1252.98 552.493 1250.88 552.493Z" fill="white"/>
<path opacity="0.5" d="M1250.88 585.402C1248.77 585.402 1247.05 583.681 1247.05 581.573C1247.05 579.465 1248.77 577.745 1250.88 577.745C1252.98 577.745 1254.7 579.465 1254.7 581.573C1254.68 583.703 1252.98 585.402 1250.88 585.402Z" fill="white"/>
<path opacity="0.5" d="M1250.88 618.332C1248.77 618.332 1247.05 616.612 1247.05 614.504C1247.05 612.396 1248.77 610.675 1250.88 610.675C1252.98 610.675 1254.7 612.396 1254.7 614.504C1254.68 616.612 1252.98 618.332 1250.88 618.332Z" fill="white"/>
<path opacity="0.5" d="M1250.88 651.241C1248.77 651.241 1247.05 649.52 1247.05 647.413C1247.05 645.305 1248.77 643.584 1250.88 643.584C1252.98 643.584 1254.7 645.305 1254.7 647.413C1254.68 649.542 1252.98 651.241 1250.88 651.241Z" fill="white"/>
<path opacity="0.5" d="M1250.88 684.172C1248.77 684.172 1247.05 682.451 1247.05 680.343C1247.05 678.235 1248.77 676.514 1250.88 676.514C1252.98 676.514 1254.7 678.235 1254.7 680.343C1254.68 682.451 1252.98 684.172 1250.88 684.172Z" fill="white"/>
<path opacity="0.5" d="M1250.88 717.08C1248.77 717.08 1247.05 715.36 1247.05 713.252C1247.05 711.144 1248.77 709.423 1250.88 709.423C1252.98 709.423 1254.7 711.144 1254.7 713.252C1254.7 715.36 1252.98 717.08 1250.88 717.08Z" fill="white"/>
<path opacity="0.5" d="M1250.88 750.011C1248.77 750.011 1247.05 748.29 1247.05 746.182C1247.05 744.074 1248.77 742.354 1250.88 742.354C1252.98 742.354 1254.7 744.074 1254.7 746.182C1254.7 748.29 1252.98 750.011 1250.88 750.011Z" fill="white"/>
<path opacity="0.5" d="M1250.88 782.92C1248.77 782.92 1247.05 781.199 1247.05 779.091C1247.05 776.983 1248.77 775.262 1250.88 775.262C1252.98 775.262 1254.7 776.983 1254.7 779.091C1254.68 781.22 1252.98 782.92 1250.88 782.92Z" fill="white"/>
<path opacity="0.5" d="M1217.95 552.493C1220.06 552.493 1221.78 550.779 1221.78 548.665C1221.78 546.55 1220.06 544.836 1217.95 544.836C1215.83 544.836 1214.12 546.55 1214.12 548.665C1214.12 550.779 1215.83 552.493 1217.95 552.493Z" fill="white"/>
<path opacity="0.5" d="M1217.95 585.424C1220.06 585.424 1221.78 583.709 1221.78 581.595C1221.78 579.48 1220.06 577.766 1217.95 577.766C1215.83 577.766 1214.12 579.48 1214.12 581.595C1214.12 583.709 1215.83 585.424 1217.95 585.424Z" fill="white"/>
<path opacity="0.5" d="M1217.95 618.332C1220.06 618.332 1221.78 616.618 1221.78 614.504C1221.78 612.389 1220.06 610.675 1217.95 610.675C1215.83 610.675 1214.12 612.389 1214.12 614.504C1214.12 616.618 1215.83 618.332 1217.95 618.332Z" fill="white"/>
<path opacity="0.5" d="M1217.95 651.263C1220.06 651.263 1221.78 649.549 1221.78 647.434C1221.78 645.32 1220.06 643.605 1217.95 643.605C1215.83 643.605 1214.12 645.32 1214.12 647.434C1214.12 649.549 1215.83 651.263 1217.95 651.263Z" fill="white"/>
<path opacity="0.5" d="M1217.95 684.172C1220.06 684.172 1221.78 682.457 1221.78 680.343C1221.78 678.229 1220.06 676.514 1217.95 676.514C1215.83 676.514 1214.12 678.229 1214.12 680.343C1214.12 682.457 1215.83 684.172 1217.95 684.172Z" fill="white"/>
<path opacity="0.5" d="M1217.95 717.102C1220.06 717.102 1221.78 715.388 1221.78 713.273C1221.78 711.159 1220.06 709.445 1217.95 709.445C1215.83 709.445 1214.12 711.159 1214.12 713.273C1214.12 715.388 1215.83 717.102 1217.95 717.102Z" fill="white"/>
<path opacity="0.5" d="M1217.95 750.011C1220.06 750.011 1221.78 748.297 1221.78 746.182C1221.78 744.068 1220.06 742.354 1217.95 742.354C1215.83 742.354 1214.12 744.068 1214.12 746.182C1214.12 748.297 1215.83 750.011 1217.95 750.011Z" fill="white"/>
<path opacity="0.5" d="M1217.95 782.92C1215.84 782.92 1214.12 781.199 1214.12 779.091C1214.12 776.983 1215.84 775.262 1217.95 775.262C1220.06 775.262 1221.78 776.983 1221.78 779.091C1221.78 781.22 1220.06 782.92 1217.95 782.92Z" fill="white"/>
<path opacity="0.5" d="M1185.02 552.493C1187.14 552.493 1188.85 550.779 1188.85 548.665C1188.85 546.55 1187.14 544.836 1185.02 544.836C1182.91 544.836 1181.19 546.55 1181.19 548.665C1181.19 550.779 1182.91 552.493 1185.02 552.493Z" fill="white"/>
<path opacity="0.5" d="M1185.02 585.424C1187.14 585.424 1188.85 583.709 1188.85 581.595C1188.85 579.48 1187.14 577.766 1185.02 577.766C1182.91 577.766 1181.19 579.48 1181.19 581.595C1181.19 583.709 1182.91 585.424 1185.02 585.424Z" fill="white"/>
<path opacity="0.5" d="M1185.02 618.332C1187.14 618.332 1188.85 616.618 1188.85 614.504C1188.85 612.389 1187.14 610.675 1185.02 610.675C1182.91 610.675 1181.19 612.389 1181.19 614.504C1181.19 616.618 1182.91 618.332 1185.02 618.332Z" fill="white"/>
<path opacity="0.5" d="M1185.02 651.263C1187.14 651.263 1188.85 649.549 1188.85 647.434C1188.85 645.32 1187.14 643.605 1185.02 643.605C1182.91 643.605 1181.19 645.32 1181.19 647.434C1181.19 649.549 1182.91 651.263 1185.02 651.263Z" fill="white"/>
<path opacity="0.5" d="M1185.02 684.172C1187.14 684.172 1188.85 682.457 1188.85 680.343C1188.85 678.229 1187.14 676.514 1185.02 676.514C1182.91 676.514 1181.19 678.229 1181.19 680.343C1181.19 682.457 1182.91 684.172 1185.02 684.172Z" fill="white"/>
<path opacity="0.5" d="M1185.02 717.102C1187.14 717.102 1188.85 715.388 1188.85 713.273C1188.85 711.159 1187.14 709.445 1185.02 709.445C1182.91 709.445 1181.19 711.159 1181.19 713.273C1181.19 715.388 1182.91 717.102 1185.02 717.102Z" fill="white"/>
<path opacity="0.5" d="M1185.02 750.011C1187.14 750.011 1188.85 748.297 1188.85 746.182C1188.85 744.068 1187.14 742.354 1185.02 742.354C1182.91 742.354 1181.19 744.068 1181.19 746.182C1181.19 748.297 1182.91 750.011 1185.02 750.011Z" fill="white"/>
<path opacity="0.5" d="M1185.02 782.92C1182.91 782.92 1181.19 781.199 1181.19 779.091C1181.19 776.983 1182.91 775.262 1185.02 775.262C1187.13 775.262 1188.85 776.983 1188.85 779.091C1188.85 781.22 1187.15 782.92 1185.02 782.92Z" fill="white"/>
<path opacity="0.5" d="M1152.12 552.493C1154.23 552.493 1155.95 550.779 1155.95 548.665C1155.95 546.55 1154.23 544.836 1152.12 544.836C1150 544.836 1148.29 546.55 1148.29 548.665C1148.29 550.779 1150 552.493 1152.12 552.493Z" fill="white"/>
<path opacity="0.5" d="M1152.12 585.424C1154.23 585.424 1155.95 583.709 1155.95 581.595C1155.95 579.48 1154.23 577.766 1152.12 577.766C1150 577.766 1148.29 579.48 1148.29 581.595C1148.29 583.709 1150 585.424 1152.12 585.424Z" fill="white"/>
<path opacity="0.5" d="M1152.12 618.332C1154.23 618.332 1155.95 616.618 1155.95 614.504C1155.95 612.389 1154.23 610.675 1152.12 610.675C1150 610.675 1148.29 612.389 1148.29 614.504C1148.29 616.618 1150 618.332 1152.12 618.332Z" fill="white"/>
<path opacity="0.5" d="M1152.12 651.263C1154.23 651.263 1155.95 649.549 1155.95 647.434C1155.95 645.32 1154.23 643.605 1152.12 643.605C1150 643.605 1148.29 645.32 1148.29 647.434C1148.29 649.549 1150 651.263 1152.12 651.263Z" fill="white"/>
<path opacity="0.5" d="M1152.12 684.172C1154.23 684.172 1155.95 682.457 1155.95 680.343C1155.95 678.229 1154.23 676.514 1152.12 676.514C1150 676.514 1148.29 678.229 1148.29 680.343C1148.29 682.457 1150 684.172 1152.12 684.172Z" fill="white"/>
<path opacity="0.5" d="M1152.12 717.102C1154.23 717.102 1155.95 715.388 1155.95 713.273C1155.95 711.159 1154.23 709.445 1152.12 709.445C1150 709.445 1148.29 711.159 1148.29 713.273C1148.29 715.388 1150 717.102 1152.12 717.102Z" fill="white"/>
<path opacity="0.5" d="M1152.12 750.011C1154.23 750.011 1155.95 748.297 1155.95 746.182C1155.95 744.068 1154.23 742.354 1152.12 742.354C1150 742.354 1148.29 744.068 1148.29 746.182C1148.29 748.297 1150 750.011 1152.12 750.011Z" fill="white"/>
<path opacity="0.5" d="M1152.12 782.92C1150.01 782.92 1148.29 781.199 1148.29 779.091C1148.29 776.983 1150.01 775.262 1152.12 775.262C1154.22 775.262 1155.95 776.983 1155.95 779.091C1155.95 781.22 1154.22 782.92 1152.12 782.92Z" fill="white"/>
<path opacity="0.5" d="M1119.19 552.493C1121.3 552.493 1123.02 550.779 1123.02 548.665C1123.02 546.55 1121.3 544.836 1119.19 544.836C1117.08 544.836 1115.36 546.55 1115.36 548.665C1115.36 550.779 1117.08 552.493 1119.19 552.493Z" fill="white"/>
<path opacity="0.5" d="M1119.19 585.424C1121.3 585.424 1123.02 583.709 1123.02 581.595C1123.02 579.48 1121.3 577.766 1119.19 577.766C1117.08 577.766 1115.36 579.48 1115.36 581.595C1115.36 583.709 1117.08 585.424 1119.19 585.424Z" fill="white"/>
<path opacity="0.5" d="M1119.19 618.332C1121.3 618.332 1123.02 616.618 1123.02 614.504C1123.02 612.389 1121.3 610.675 1119.19 610.675C1117.08 610.675 1115.36 612.389 1115.36 614.504C1115.36 616.618 1117.08 618.332 1119.19 618.332Z" fill="white"/>
<path opacity="0.5" d="M1119.19 651.263C1121.3 651.263 1123.02 649.549 1123.02 647.434C1123.02 645.32 1121.3 643.605 1119.19 643.605C1117.08 643.605 1115.36 645.32 1115.36 647.434C1115.36 649.549 1117.08 651.263 1119.19 651.263Z" fill="white"/>
<path opacity="0.5" d="M1119.19 684.172C1121.3 684.172 1123.02 682.457 1123.02 680.343C1123.02 678.229 1121.3 676.514 1119.19 676.514C1117.08 676.514 1115.36 678.229 1115.36 680.343C1115.36 682.457 1117.08 684.172 1119.19 684.172Z" fill="white"/>
<path opacity="0.5" d="M1119.19 717.102C1121.3 717.102 1123.02 715.388 1123.02 713.273C1123.02 711.159 1121.3 709.445 1119.19 709.445C1117.08 709.445 1115.36 711.159 1115.36 713.273C1115.36 715.388 1117.08 717.102 1119.19 717.102Z" fill="white"/>
<path opacity="0.5" d="M1119.19 750.011C1121.3 750.011 1123.02 748.297 1123.02 746.182C1123.02 744.068 1121.3 742.354 1119.19 742.354C1117.08 742.354 1115.36 744.068 1115.36 746.182C1115.36 748.297 1117.08 750.011 1119.19 750.011Z" fill="white"/>
<path opacity="0.5" d="M1119.19 782.92C1117.08 782.92 1115.36 781.199 1115.36 779.091C1115.36 776.983 1117.08 775.262 1119.19 775.262C1121.3 775.262 1123.02 776.983 1123.02 779.091C1123.02 781.22 1121.3 782.92 1119.19 782.92Z" fill="white"/>
</g>
<g opacity="0.5">
<path opacity="0.5" d="M863.562 55.7629C863.562 57.8708 861.842 59.5916 859.734 59.5916C857.626 59.5916 855.906 57.8708 855.906 55.7629C855.906 53.655 857.626 51.9343 859.734 51.9343C861.842 51.9343 863.562 53.655 863.562 55.7629Z" fill="white"/>
<path opacity="0.5" d="M896.489 55.7629C896.489 57.8708 894.768 59.5916 892.661 59.5916C890.553 59.5916 888.833 57.8708 888.833 55.7629C888.833 53.655 890.553 51.9343 892.661 51.9343C894.768 51.9558 896.489 53.655 896.489 55.7629Z" fill="white"/>
<path opacity="0.5" d="M929.394 55.7629C929.394 57.8708 927.673 59.5916 925.566 59.5916C923.458 59.5916 921.738 57.8708 921.738 55.7629C921.738 53.655 923.458 51.9343 925.566 51.9343C927.673 51.9343 929.394 53.655 929.394 55.7629Z" fill="white"/>
<path opacity="0.5" d="M863.562 88.6934C863.562 90.8012 861.842 92.522 859.734 92.522C857.626 92.522 855.906 90.8012 855.906 88.6934C855.906 86.5855 857.626 84.8647 859.734 84.8647C861.842 84.8647 863.562 86.5855 863.562 88.6934Z" fill="white"/>
<path opacity="0.5" d="M896.489 88.6934C896.489 90.8012 894.768 92.522 892.661 92.522C890.553 92.522 888.833 90.8012 888.833 88.6934C888.833 86.5855 890.553 84.8647 892.661 84.8647C894.768 84.8647 896.489 86.5855 896.489 88.6934Z" fill="white"/>
<path opacity="0.5" d="M929.394 88.6934C929.394 90.8012 927.673 92.522 925.566 92.522C923.458 92.522 921.738 90.8012 921.738 88.6934C921.738 86.5855 923.458 84.8647 925.566 84.8647C927.673 84.8647 929.394 86.5855 929.394 88.6934Z" fill="white"/>
<path opacity="0.5" d="M863.562 121.602C863.562 123.71 861.842 125.431 859.734 125.431C857.626 125.431 855.906 123.71 855.906 121.602C855.906 119.494 857.626 117.774 859.734 117.774C861.842 117.774 863.562 119.494 863.562 121.602Z" fill="white"/>
<path opacity="0.5" d="M896.489 121.602C896.489 123.71 894.768 125.431 892.661 125.431C890.553 125.431 888.833 123.71 888.833 121.602C888.833 119.494 890.553 117.774 892.661 117.774C894.768 117.795 896.489 119.494 896.489 121.602Z" fill="white"/>
<path opacity="0.5" d="M929.394 121.602C929.394 123.71 927.673 125.431 925.566 125.431C923.458 125.431 921.738 123.71 921.738 121.602C921.738 119.494 923.458 117.774 925.566 117.774C927.673 117.774 929.394 119.494 929.394 121.602Z" fill="white"/>
</g>
<g opacity="0.5">
<path opacity="0.5" d="M556.232 348.265C556.232 350.373 554.511 352.093 552.404 352.093C550.296 352.093 548.575 350.373 548.575 348.265C548.575 346.157 550.296 344.436 552.404 344.436C554.533 344.436 556.232 346.135 556.232 348.265Z" fill="white"/>
<path opacity="0.5" d="M585.33 352.093C587.445 352.093 589.159 350.379 589.159 348.265C589.159 346.15 587.445 344.436 585.33 344.436C583.216 344.436 581.502 346.15 581.502 348.265C581.502 350.379 583.216 352.093 585.33 352.093Z" fill="white"/>
<path opacity="0.5" d="M618.236 352.093C620.35 352.093 622.064 350.379 622.064 348.265C622.064 346.15 620.35 344.436 618.236 344.436C616.121 344.436 614.407 346.15 614.407 348.265C614.407 350.379 616.121 352.093 618.236 352.093Z" fill="white"/>
<path opacity="0.5" d="M556.232 381.173C556.232 383.281 554.511 385.002 552.404 385.002C550.296 385.002 548.575 383.281 548.575 381.173C548.575 379.066 550.296 377.345 552.404 377.345C554.533 377.345 556.232 379.066 556.232 381.173Z" fill="white"/>
<path opacity="0.5" d="M585.33 385.002C587.445 385.002 589.159 383.288 589.159 381.173C589.159 379.059 587.445 377.345 585.33 377.345C583.216 377.345 581.502 379.059 581.502 381.173C581.502 383.288 583.216 385.002 585.33 385.002Z" fill="white"/>
<path opacity="0.5" d="M618.236 385.002C620.35 385.002 622.064 383.288 622.064 381.173C622.064 379.059 620.35 377.345 618.236 377.345C616.121 377.345 614.407 379.059 614.407 381.173C614.407 383.288 616.121 385.002 618.236 385.002Z" fill="white"/>
<path opacity="0.5" d="M556.232 414.104C556.232 416.212 554.511 417.933 552.404 417.933C550.296 417.933 548.575 416.212 548.575 414.104C548.575 411.996 550.296 410.275 552.404 410.275C554.533 410.275 556.232 411.996 556.232 414.104Z" fill="white"/>
<path opacity="0.5" d="M589.159 414.104C589.159 416.212 587.438 417.933 585.33 417.933C583.223 417.933 581.502 416.212 581.502 414.104C581.502 411.996 583.223 410.275 585.33 410.275C587.438 410.275 589.159 411.996 589.159 414.104Z" fill="white"/>
<path opacity="0.5" d="M622.064 414.104C622.064 416.212 620.343 417.933 618.236 417.933C616.128 417.933 614.407 416.212 614.407 414.104C614.407 411.996 616.128 410.275 618.236 410.275C620.365 410.275 622.064 411.996 622.064 414.104Z" fill="white"/>
</g>
<g opacity="0.5">
<path opacity="0.5" d="M1172.4 -71.0974L1033.72 67.593" stroke="white" stroke-width="2.1221" stroke-miterlimit="10"/>
<path opacity="0.5" d="M1163.39 -80.1097L1024.71 58.5807" stroke="white" stroke-width="2.1221" stroke-miterlimit="10"/>
<path opacity="0.5" d="M1154.38 -89.1221L1015.7 49.5683" stroke="white" stroke-width="2.1221" stroke-miterlimit="10"/>
<path opacity="0.5" d="M1145.36 -98.1343L1006.69 40.5561" stroke="white" stroke-width="2.1221" stroke-miterlimit="10"/>
<path opacity="0.5" d="M1136.35 -107.147L997.678 31.5438" stroke="white" stroke-width="2.1221" stroke-miterlimit="10"/>
<path opacity="0.5" d="M1127.34 -116.159L988.667 22.5314" stroke="white" stroke-width="2.1221" stroke-miterlimit="10"/>
<path opacity="0.5" d="M1118.33 -125.171L979.655 13.5192" stroke="white" stroke-width="2.1221" stroke-miterlimit="10"/>
<path opacity="0.5" d="M1109.32 -134.183L970.644 4.50693" stroke="white" stroke-width="2.1221" stroke-miterlimit="10"/>
</g>
<g opacity="0.5">
<path opacity="0.5" d="M774.245 925.439L635.57 1064.13" stroke="white" stroke-width="2.1221" stroke-miterlimit="10"/>
<path opacity="0.5" d="M765.234 916.426L626.559 1055.12" stroke="white" stroke-width="2.1221" stroke-miterlimit="10"/>
<path opacity="0.5" d="M756.223 907.414L617.548 1046.1" stroke="white" stroke-width="2.1221" stroke-miterlimit="10"/>
<path opacity="0.5" d="M747.211 898.402L608.558 1037.09" stroke="white" stroke-width="2.1221" stroke-miterlimit="10"/>
<path opacity="0.5" d="M738.221 889.411L599.547 1028.08" stroke="white" stroke-width="2.1221" stroke-miterlimit="10"/>
<path opacity="0.5" d="M729.21 880.399L590.535 1019.07" stroke="white" stroke-width="2.1221" stroke-miterlimit="10"/>
<path opacity="0.5" d="M720.199 871.386L581.524 1010.08" stroke="white" stroke-width="2.1221" stroke-miterlimit="10"/>
</g>
<g opacity="0.8">
<path opacity="0.8" d="M759.151 101.674C877.54 -16.729 877.54 -208.697 759.151 -327.1C640.761 -445.503 448.814 -445.503 330.425 -327.1C212.035 -208.697 212.035 -16.729 330.425 101.674C448.814 220.076 640.761 220.076 759.151 101.674Z" stroke="white" stroke-width="0.5" stroke-miterlimit="10"/>
<path opacity="0.8" d="M748.353 90.8752C860.78 -21.5636 860.78 -203.863 748.353 -316.302C635.927 -428.74 453.648 -428.74 341.222 -316.302C228.795 -203.863 228.796 -21.5636 341.222 90.8751C453.648 203.314 635.927 203.314 748.353 90.8752Z" stroke="white" stroke-width="0.6562" stroke-miterlimit="10"/>
<path opacity="0.8" d="M544.79 159.91C695.342 159.91 817.387 37.8504 817.387 -112.717C817.387 -263.285 695.342 -385.345 544.79 -385.345C394.239 -385.345 272.193 -263.285 272.193 -112.717C272.193 37.8504 394.239 159.91 544.79 159.91Z" stroke="white" stroke-width="0.8125" stroke-miterlimit="10"/>
<path opacity="0.8" d="M544.79 144.638C686.908 144.638 802.118 29.4164 802.118 -112.717C802.118 -254.851 686.908 -370.073 544.79 -370.073C402.673 -370.073 287.463 -254.851 287.463 -112.717C287.463 29.4164 402.673 144.638 544.79 144.638Z" stroke="white" stroke-width="0.9688" stroke-miterlimit="10"/>
<path opacity="0.8" d="M715.946 58.4646C810.475 -36.0743 810.475 -189.352 715.946 -283.891C621.418 -378.43 468.157 -378.43 373.629 -283.891C279.1 -189.352 279.1 -36.0743 373.629 58.4646C468.157 153.004 621.418 153.004 715.946 58.4646Z" stroke="white" stroke-width="1.125" stroke-miterlimit="10"/>
<path opacity="0.8" d="M705.149 47.6662C793.714 -40.9089 793.715 -184.518 705.149 -273.093C616.584 -361.668 472.991 -361.668 384.426 -273.093C295.861 -184.518 295.861 -40.9089 384.426 47.6662C472.991 136.241 616.584 136.241 705.149 47.6662Z" stroke="white" stroke-width="1.2812" stroke-miterlimit="10"/>
<path opacity="0.8" d="M694.352 36.8678C776.954 -45.7435 776.954 -179.683 694.352 -262.294C611.75 -344.906 477.825 -344.906 395.223 -262.294C312.621 -179.683 312.621 -45.7435 395.223 36.8678C477.825 119.479 611.75 119.479 694.352 36.8678Z" stroke="white" stroke-width="1.4375" stroke-miterlimit="10"/>
<path opacity="0.8" d="M683.555 26.0695C760.194 -50.5781 760.194 -174.848 683.555 -251.496C606.916 -328.143 482.659 -328.143 406.02 -251.496C329.381 -174.848 329.381 -50.578 406.02 26.0695C482.659 102.717 606.916 102.717 683.555 26.0695Z" stroke="white" stroke-width="1.5938" stroke-miterlimit="10"/>
<path opacity="0.8" d="M723.492 -83.8385C739.414 -182.522 672.332 -275.429 573.66 -291.354C474.988 -307.278 382.09 -240.188 366.168 -141.505C350.246 -42.8214 417.328 50.0863 516 66.0103C614.673 81.9344 707.57 14.8448 723.492 -83.8385Z" stroke="white" stroke-width="1.75" stroke-miterlimit="10"/>
<path opacity="0.8" d="M544.791 53.0098C636.309 53.0098 710.499 -21.1888 710.499 -112.717C710.499 -204.246 636.309 -278.445 544.791 -278.445C453.272 -278.445 379.082 -204.246 379.082 -112.717C379.082 -21.1888 453.272 53.0098 544.791 53.0098Z" stroke="white" stroke-width="1.9062" stroke-miterlimit="10"/>
<path opacity="0.8" d="M651.163 -6.32593C709.913 -65.082 709.913 -160.344 651.163 -219.101C592.414 -277.857 497.162 -277.857 438.412 -219.101C379.663 -160.344 379.663 -65.082 438.412 -6.32594C497.162 52.4302 592.414 52.4302 651.163 -6.32593Z" stroke="white" stroke-width="2.0625" stroke-miterlimit="10"/>
<path opacity="0.8" d="M640.351 -17.1394C693.129 -69.9233 693.129 -155.503 640.351 -208.287C587.573 -261.071 502.002 -261.071 449.224 -208.287C396.446 -155.503 396.446 -69.9233 449.224 -17.1394C502.002 35.6444 587.573 35.6444 640.351 -17.1394Z" stroke="white" stroke-width="2.2188" stroke-miterlimit="10"/>
<path opacity="0.8" d="M629.553 -27.938C676.368 -74.7581 676.368 -150.668 629.553 -197.488C582.738 -244.309 506.837 -244.309 460.022 -197.488C413.207 -150.668 413.207 -74.7581 460.022 -27.938C506.837 18.8821 582.738 18.8821 629.553 -27.938Z" stroke="white" stroke-width="2.375" stroke-miterlimit="10"/>
<path opacity="0.8" d="M618.756 -38.7364C659.608 -79.5927 659.608 -145.834 618.756 -186.69C577.904 -227.546 511.671 -227.546 470.819 -186.69C429.967 -145.834 429.967 -79.5927 470.819 -38.7364C511.671 2.11985 577.904 2.11987 618.756 -38.7364Z" stroke="white" stroke-width="2.5312" stroke-miterlimit="10"/>
</g>
<g opacity="0.79">
<path opacity="0.79" d="M1021.94 574.598C1099.4 497.128 1099.4 371.523 1021.94 294.052C944.479 216.581 818.889 216.581 741.427 294.052C663.964 371.523 663.964 497.128 741.426 574.598C818.889 652.069 944.479 652.069 1021.94 574.598Z" stroke="white" stroke-width="0.5" stroke-miterlimit="10"/>
<path opacity="0.79" d="M1012.06 564.712C1084.06 492.701 1084.06 375.949 1012.06 303.938C940.054 231.927 823.314 231.927 751.311 303.938C679.308 375.949 679.308 492.702 751.311 564.712C823.314 636.723 940.054 636.723 1012.06 564.712Z" stroke="white" stroke-width="0.7273" stroke-miterlimit="10"/>
<path opacity="0.79" d="M881.692 604.739C975.8 604.739 1052.09 528.441 1052.09 434.322C1052.09 340.204 975.8 263.906 881.692 263.906C787.585 263.906 711.295 340.204 711.295 434.322C711.295 528.441 787.585 604.739 881.692 604.739Z" stroke="white" stroke-width="0.9545" stroke-miterlimit="10"/>
<path opacity="0.79" d="M881.692 590.779C968.092 590.779 1038.13 520.731 1038.13 434.322C1038.13 347.914 968.092 277.865 881.692 277.865C795.293 277.865 725.253 347.914 725.253 434.322C725.253 520.731 795.293 590.779 881.692 590.779Z" stroke="white" stroke-width="1.1818" stroke-miterlimit="10"/>
<path opacity="0.79" d="M881.692 576.798C960.371 576.798 1024.15 513.01 1024.15 434.322C1024.15 355.635 960.371 291.846 881.692 291.846C803.014 291.846 739.232 355.635 739.232 434.322C739.232 513.01 803.014 576.798 881.692 576.798Z" stroke="white" stroke-width="1.4091" stroke-miterlimit="10"/>
<path opacity="0.79" d="M881.692 562.817C952.65 562.817 1010.17 505.288 1010.17 434.322C1010.17 363.357 952.65 305.827 881.692 305.827C810.734 305.827 753.212 363.357 753.212 434.322C753.212 505.288 810.734 562.817 881.692 562.817Z" stroke="white" stroke-width="1.6364" stroke-miterlimit="10"/>
<path opacity="0.79" d="M881.692 548.837C944.93 548.837 996.194 497.567 996.194 434.322C996.194 371.078 944.93 319.808 881.692 319.808C818.455 319.808 767.191 371.078 767.191 434.322C767.191 497.567 818.455 548.837 881.692 548.837Z" stroke="white" stroke-width="1.8636" stroke-miterlimit="10"/>
<path opacity="0.79" d="M881.692 534.856C937.209 534.856 982.215 489.845 982.215 434.322C982.215 378.799 937.209 333.789 881.692 333.789C826.176 333.789 781.17 378.799 781.17 434.322C781.17 489.845 826.176 534.856 881.692 534.856Z" stroke="white" stroke-width="2.0909" stroke-miterlimit="10"/>
<path opacity="0.79" d="M881.692 520.875C929.489 520.875 968.235 482.124 968.235 434.322C968.235 386.521 929.489 347.77 881.692 347.77C833.896 347.77 795.15 386.521 795.15 434.322C795.15 482.124 833.896 520.875 881.692 520.875Z" stroke="white" stroke-width="2.3182" stroke-miterlimit="10"/>
<path opacity="0.79" d="M881.693 506.894C921.768 506.894 954.256 474.403 954.256 434.322C954.256 394.242 921.768 361.751 881.693 361.751C841.617 361.751 809.129 394.242 809.129 434.322C809.129 474.403 841.617 506.894 881.693 506.894Z" stroke="white" stroke-width="2.5454" stroke-miterlimit="10"/>
<path opacity="0.79" d="M881.692 492.913C914.048 492.913 940.277 466.681 940.277 434.322C940.277 401.964 914.048 375.732 881.692 375.732C849.337 375.732 823.108 401.964 823.108 434.322C823.108 466.681 849.337 492.913 881.692 492.913Z" stroke="white" stroke-width="2.7727" stroke-miterlimit="10"/>
<path opacity="0.79" d="M881.692 478.932C906.327 478.932 926.297 458.96 926.297 434.322C926.297 409.685 906.327 389.713 881.692 389.713C857.058 389.713 837.088 409.685 837.088 434.322C837.088 458.96 857.058 478.932 881.692 478.932Z" stroke="white" stroke-width="3" stroke-miterlimit="10"/>
</g>
<g opacity="0.89">
<g opacity="0.89">
<path opacity="0.89" d="M302.819 520.509C398.91 520.509 476.808 442.603 476.808 346.501C476.808 250.399 398.91 172.493 302.819 172.493C206.728 172.493 128.83 250.399 128.83 346.501C128.83 442.603 206.728 520.509 302.819 520.509Z" stroke="white" stroke-width="0.8127" stroke-linecap="round" stroke-linejoin="round"/>
</g>
<g opacity="0.89">
<path opacity="0.89" d="M302.819 507.819C391.903 507.819 464.119 435.594 464.119 346.501C464.119 257.407 391.903 185.183 302.819 185.183C213.736 185.183 141.519 257.407 141.519 346.501C141.519 435.594 213.736 507.819 302.819 507.819Z" stroke="white" stroke-width="0.9493" stroke-linecap="round" stroke-linejoin="round"/>
</g>
<g opacity="0.89">
<path opacity="0.89" d="M302.819 495.128C384.895 495.128 451.43 428.586 451.43 346.501C451.43 264.416 384.895 197.873 302.819 197.873C220.743 197.873 154.208 264.416 154.208 346.501C154.208 428.586 220.743 495.128 302.819 495.128Z" stroke="white" stroke-width="1.0859" stroke-linecap="round" stroke-linejoin="round"/>
</g>
<g opacity="0.89">
<path opacity="0.89" d="M302.819 482.438C377.887 482.438 438.741 421.577 438.741 346.501C438.741 271.425 377.887 210.564 302.819 210.564C227.751 210.564 166.897 271.425 166.897 346.501C166.897 421.577 227.751 482.438 302.819 482.438Z" stroke="white" stroke-width="1.2225" stroke-linecap="round" stroke-linejoin="round"/>
</g>
<g opacity="0.89">
<path opacity="0.89" d="M302.819 469.748C370.879 469.748 426.052 414.568 426.052 346.501C426.052 278.434 370.879 223.254 302.819 223.254C234.759 223.254 179.586 278.434 179.586 346.501C179.586 414.568 234.759 469.748 302.819 469.748Z" stroke="white" stroke-width="1.3591" stroke-linecap="round" stroke-linejoin="round"/>
</g>
<g opacity="0.89">
<path opacity="0.89" d="M302.819 457.057C363.871 457.057 413.363 407.56 413.363 346.501C413.363 285.442 363.871 235.944 302.819 235.944C241.767 235.944 192.275 285.442 192.275 346.501C192.275 407.56 241.767 457.057 302.819 457.057Z" stroke="white" stroke-width="1.4956" stroke-linecap="round" stroke-linejoin="round"/>
</g>
<g opacity="0.89">
<path opacity="0.89" d="M302.819 444.367C356.863 444.367 400.674 400.551 400.674 346.501C400.674 292.451 356.863 248.635 302.819 248.635C248.775 248.635 204.964 292.451 204.964 346.501C204.964 400.551 248.775 444.367 302.819 444.367Z" stroke="white" stroke-width="1.6322" stroke-linecap="round" stroke-linejoin="round"/>
</g>
<g opacity="0.89">
<path opacity="0.89" d="M302.819 431.677C349.855 431.677 387.985 393.542 387.985 346.501C387.985 299.46 349.855 261.325 302.819 261.325C255.783 261.325 217.653 299.46 217.653 346.501C217.653 393.542 255.783 431.677 302.819 431.677Z" stroke="white" stroke-width="1.7688" stroke-linecap="round" stroke-linejoin="round"/>
</g>
<g opacity="0.89">
<path opacity="0.89" d="M302.819 419.008C342.859 419.008 375.318 386.545 375.318 346.501C375.318 306.456 342.859 273.994 302.819 273.994C262.779 273.994 230.32 306.456 230.32 346.501C230.32 386.545 262.779 419.008 302.819 419.008Z" stroke="white" stroke-width="1.9054" stroke-linecap="round" stroke-linejoin="round"/>
</g>
<g opacity="0.89">
<path opacity="0.89" d="M302.819 406.318C335.851 406.318 362.629 379.537 362.629 346.501C362.629 313.465 335.851 286.684 302.819 286.684C269.787 286.684 243.009 313.465 243.009 346.501C243.009 379.537 269.787 406.318 302.819 406.318Z" stroke="white" stroke-width="2.042" stroke-linecap="round" stroke-linejoin="round"/>
</g>
<g opacity="0.89">
<path opacity="0.89" d="M302.819 393.627C328.843 393.627 349.94 372.528 349.94 346.501C349.94 320.474 328.843 299.375 302.819 299.375C276.795 299.375 255.698 320.474 255.698 346.501C255.698 372.528 276.795 393.627 302.819 393.627Z" stroke="white" stroke-width="2.1786" stroke-linecap="round" stroke-linejoin="round"/>
</g>
<g opacity="0.89">
<path opacity="0.89" d="M302.819 380.937C321.835 380.937 337.251 365.519 337.251 346.501C337.251 327.482 321.835 312.065 302.819 312.065C283.803 312.065 268.387 327.482 268.387 346.501C268.387 365.519 283.803 380.937 302.819 380.937Z" stroke="white" stroke-width="2.3152" stroke-linecap="round" stroke-linejoin="round"/>
</g>
</g>
<g opacity="0.81">
<g opacity="0.81">
<path opacity="0.81" d="M1755.67 156.917C1881.58 30.9967 1881.58 -173.16 1755.67 -299.081C1629.76 -425.001 1425.63 -425.001 1299.72 -299.081C1173.82 -173.16 1173.82 30.9968 1299.72 156.917C1425.63 282.837 1629.76 282.837 1755.67 156.917Z" stroke="white" stroke-width="1.0531" stroke-linecap="round" stroke-linejoin="round"/>
</g>
<g opacity="0.81">
<path opacity="0.81" d="M1527.71 239.02C1698.96 239.02 1837.79 100.176 1837.79 -71.0974C1837.79 -242.371 1698.96 -381.215 1527.71 -381.215C1356.46 -381.215 1217.63 -242.371 1217.63 -71.0974C1217.63 100.176 1356.46 239.02 1527.71 239.02Z" stroke="white" stroke-width="1.1458" stroke-linecap="round" stroke-linejoin="round"/>
</g>
<g opacity="0.81">
<path opacity="0.81" d="M1738.26 139.503C1854.55 23.2001 1854.55 -165.364 1738.26 -281.666C1621.97 -397.969 1433.43 -397.969 1317.14 -281.666C1200.85 -165.364 1200.85 23.2001 1317.14 139.503C1433.43 255.805 1621.97 255.805 1738.26 139.503Z" stroke="white" stroke-width="1.2385" stroke-linecap="round" stroke-linejoin="round"/>
</g>
<g opacity="0.81">
<path opacity="0.81" d="M1527.71 214.392C1685.36 214.392 1813.17 86.5742 1813.17 -71.0974C1813.17 -228.769 1685.36 -356.587 1527.71 -356.587C1370.06 -356.587 1242.25 -228.769 1242.25 -71.0974C1242.25 86.5742 1370.06 214.392 1527.71 214.392Z" stroke="white" stroke-width="1.3312" stroke-linecap="round" stroke-linejoin="round"/>
</g>
<g opacity="0.81">
<path opacity="0.81" d="M1527.71 202.089C1678.57 202.089 1800.87 79.7793 1800.87 -71.0974C1800.87 -221.974 1678.57 -344.284 1527.71 -344.284C1376.85 -344.284 1254.55 -221.974 1254.55 -71.0974C1254.55 79.7793 1376.85 202.089 1527.71 202.089Z" stroke="white" stroke-width="1.4239" stroke-linecap="round" stroke-linejoin="round"/>
</g>
<g opacity="0.81">
<path opacity="0.81" d="M1527.71 189.764C1671.76 189.764 1788.54 72.9726 1788.54 -71.0974C1788.54 -215.167 1671.76 -331.959 1527.71 -331.959C1383.66 -331.959 1266.88 -215.167 1266.88 -71.0974C1266.88 72.9726 1383.66 189.764 1527.71 189.764Z" stroke="white" stroke-width="1.5166" stroke-linecap="round" stroke-linejoin="round"/>
</g>
<g opacity="0.81">
<path opacity="0.81" d="M1527.71 177.44C1664.96 177.44 1776.22 66.1659 1776.22 -71.0974C1776.22 -208.361 1664.96 -319.635 1527.71 -319.635C1390.46 -319.635 1279.2 -208.361 1279.2 -71.0974C1279.2 66.1659 1390.46 177.44 1527.71 177.44Z" stroke="white" stroke-width="1.6093" stroke-linecap="round" stroke-linejoin="round"/>
</g>
<g opacity="0.81">
<path opacity="0.81" d="M1527.71 165.137C1658.16 165.137 1763.92 59.371 1763.92 -71.0974C1763.92 -201.566 1658.16 -307.331 1527.71 -307.331C1397.26 -307.331 1291.5 -201.566 1291.5 -71.0974C1291.5 59.371 1397.26 165.137 1527.71 165.137Z" stroke="white" stroke-width="1.702" stroke-linecap="round" stroke-linejoin="round"/>
</g>
<g opacity="0.81">
<path opacity="0.81" d="M1527.71 152.812C1651.36 152.812 1751.59 52.5643 1751.59 -71.0974C1751.59 -194.759 1651.36 -295.007 1527.71 -295.007C1404.06 -295.007 1303.83 -194.759 1303.83 -71.0974C1303.83 52.5643 1404.06 152.812 1527.71 152.812Z" stroke="white" stroke-width="1.7948" stroke-linecap="round" stroke-linejoin="round"/>
</g>
<g opacity="0.81">
<path opacity="0.81" d="M1527.71 140.509C1644.56 140.509 1739.29 45.7695 1739.29 -71.0973C1739.29 -187.964 1644.56 -282.703 1527.71 -282.703C1410.86 -282.703 1316.13 -187.964 1316.13 -71.0973C1316.13 45.7695 1410.86 140.509 1527.71 140.509Z" stroke="white" stroke-width="1.8875" stroke-linecap="round" stroke-linejoin="round"/>
</g>
<g opacity="0.81">
<path opacity="0.81" d="M1527.71 128.184C1637.76 128.184 1726.97 38.9627 1726.97 -71.0974C1726.97 -181.157 1637.76 -270.379 1527.71 -270.379C1417.66 -270.379 1328.45 -181.157 1328.45 -71.0974C1328.45 38.9627 1417.66 128.184 1527.71 128.184Z" stroke="white" stroke-width="1.9802" stroke-linecap="round" stroke-linejoin="round"/>
</g>
<g opacity="0.81">
<path opacity="0.81" d="M1527.71 115.859C1630.95 115.859 1714.65 32.1559 1714.65 -71.0974C1714.65 -174.351 1630.95 -258.054 1527.71 -258.054C1424.47 -258.054 1340.77 -174.351 1340.77 -71.0974C1340.77 32.1559 1424.47 115.859 1527.71 115.859Z" stroke="white" stroke-width="2.0729" stroke-linecap="round" stroke-linejoin="round"/>
</g>
<g opacity="0.81">
<path opacity="0.81" d="M1533.98 103.559C1630.37 100.125 1705.73 19.1933 1702.3 -77.2073C1698.86 -173.608 1617.94 -248.972 1521.55 -245.538C1425.16 -242.104 1349.8 -161.173 1353.24 -64.772C1356.67 31.6286 1437.59 106.993 1533.98 103.559Z" stroke="white" stroke-width="2.1656" stroke-linecap="round" stroke-linejoin="round"/>
</g>
<g opacity="0.81">
<path opacity="0.81" d="M1527.71 91.2314C1617.35 91.2314 1690.02 18.5543 1690.02 -71.0974C1690.02 -160.749 1617.35 -233.426 1527.71 -233.426C1438.07 -233.426 1365.4 -160.749 1365.4 -71.0974C1365.4 18.5543 1438.07 91.2314 1527.71 91.2314Z" stroke="white" stroke-width="2.2583" stroke-linecap="round" stroke-linejoin="round"/>
</g>
<g opacity="0.81">
<path opacity="0.81" d="M1533.11 78.946C1615.91 75.9963 1680.64 6.47664 1677.69 -76.3305C1674.74 -159.138 1605.22 -223.875 1522.43 -220.925C1439.63 -217.976 1374.9 -148.456 1377.85 -65.6487C1380.8 17.1585 1450.31 81.8957 1533.11 78.946Z" stroke="white" stroke-width="2.351" stroke-linecap="round" stroke-linejoin="round"/>
</g>
<g opacity="0.81">
<path opacity="0.81" d="M1527.71 66.6036C1603.75 66.6036 1665.4 4.95276 1665.4 -71.0974C1665.4 -147.148 1603.75 -208.798 1527.71 -208.798C1451.67 -208.798 1390.02 -147.148 1390.02 -71.0974C1390.02 4.95276 1451.67 66.6036 1527.71 66.6036Z" stroke="white" stroke-width="2.4437" stroke-linecap="round" stroke-linejoin="round"/>
</g>
<g opacity="0.81">
<path opacity="0.81" d="M1532.23 54.3115C1601.42 51.8464 1655.52 -6.25115 1653.05 -75.453C1650.59 -144.655 1592.5 -198.756 1523.3 -196.291C1454.11 -193.826 1400.02 -135.728 1402.48 -66.5262C1404.94 2.67564 1463.04 56.7765 1532.23 54.3115Z" stroke="white" stroke-width="2.5364" stroke-linecap="round" stroke-linejoin="round"/>
</g>
<g opacity="0.81">
<path opacity="0.81" d="M1527.71 41.9758C1590.15 41.9758 1640.77 -8.64877 1640.77 -71.0973C1640.77 -133.546 1590.15 -184.17 1527.71 -184.17C1465.27 -184.17 1414.65 -133.546 1414.65 -71.0973C1414.65 -8.64877 1465.27 41.9758 1527.71 41.9758Z" stroke="white" stroke-width="2.6292" stroke-linecap="round" stroke-linejoin="round"/>
</g>
<g opacity="0.81">
<path opacity="0.81" d="M1531.35 29.6984C1586.96 27.7176 1630.42 -18.9677 1628.44 -74.5762C1626.46 -130.185 1579.78 -173.658 1524.18 -171.677C1468.58 -169.697 1425.11 -123.011 1427.09 -67.4029C1429.07 -11.7944 1475.75 31.6793 1531.35 29.6984Z" stroke="white" stroke-width="2.7219" stroke-linecap="round" stroke-linejoin="round"/>
</g>
<g opacity="0.81">
<path opacity="0.81" d="M1527.71 17.3478C1576.55 17.3478 1616.15 -22.2504 1616.15 -71.0974C1616.15 -119.944 1576.55 -159.543 1527.71 -159.543C1478.87 -159.543 1439.27 -119.944 1439.27 -71.0974C1439.27 -22.2504 1478.87 17.3478 1527.71 17.3478Z" stroke="white" stroke-width="2.8146" stroke-linecap="round" stroke-linejoin="round"/>
</g>
</g>
<g opacity="0.77">
<g opacity="0.77">
<path opacity="0.77" d="M503.584 454.175L203.566 754.227" stroke="white" stroke-width="2" stroke-miterlimit="10"/>
<path opacity="0.77" d="M520.832 454.175L220.814 754.227" stroke="white" stroke-width="2" stroke-miterlimit="10"/>
<path opacity="0.77" d="M538.059 454.175L238.041 754.227" stroke="white" stroke-width="2" stroke-miterlimit="10"/>
<path opacity="0.77" d="M555.307 454.175L255.289 754.227" stroke="white" stroke-width="2" stroke-miterlimit="10"/>
<path opacity="0.77" d="M572.556 454.175L272.538 754.227" stroke="white" stroke-width="2" stroke-miterlimit="10"/>
<path opacity="0.77" d="M589.804 454.175L289.786 754.227" stroke="white" stroke-width="2" stroke-miterlimit="10"/>
<path opacity="0.77" d="M607.031 454.175L307.013 754.227" stroke="white" stroke-width="2" stroke-miterlimit="10"/>
<path opacity="0.77" d="M624.279 454.175L324.261 754.227" stroke="white" stroke-width="2" stroke-miterlimit="10"/>
<path opacity="0.77" d="M641.528 454.175L341.51 754.227" stroke="white" stroke-width="2" stroke-miterlimit="10"/>
<path opacity="0.77" d="M658.776 454.175L358.758 754.227" stroke="white" stroke-width="2" stroke-miterlimit="10"/>
<path opacity="0.77" d="M676.003 454.175L375.985 754.227" stroke="white" stroke-width="2" stroke-miterlimit="10"/>
<path opacity="0.77" d="M693.251 454.175L393.233 754.227" stroke="white" stroke-width="2" stroke-miterlimit="10"/>
<path opacity="0.77" d="M710.499 454.175L410.481 754.227" stroke="white" stroke-width="2" stroke-miterlimit="10"/>
<path opacity="0.77" d="M727.726 454.175L427.708 754.227" stroke="white" stroke-width="2" stroke-miterlimit="10"/>
<path opacity="0.77" d="M744.975 454.175L444.957 754.227" stroke="white" stroke-width="2" stroke-miterlimit="10"/>
<path opacity="0.77" d="M762.223 454.175L462.205 754.227" stroke="white" stroke-width="2" stroke-miterlimit="10"/>
<path opacity="0.77" d="M779.471 454.175L479.453 754.227" stroke="white" stroke-width="2" stroke-miterlimit="10"/>
<path opacity="0.77" d="M796.698 454.175L496.68 754.227" stroke="white" stroke-width="2" stroke-miterlimit="10"/>
<path opacity="0.77" d="M813.946 454.175L513.928 754.227" stroke="white" stroke-width="2" stroke-miterlimit="10"/>
<path opacity="0.77" d="M831.195 454.175L531.177 754.227" stroke="white" stroke-width="2" stroke-miterlimit="10"/>
<path opacity="0.77" d="M848.422 454.175L548.404 754.227" stroke="white" stroke-width="2" stroke-miterlimit="10"/>
<path opacity="0.77" d="M865.67 454.175L565.652 754.227" stroke="white" stroke-width="2" stroke-miterlimit="10"/>
<path opacity="0.77" d="M882.918 454.175L582.9 754.227" stroke="white" stroke-width="2" stroke-miterlimit="10"/>
<path opacity="0.77" d="M900.167 454.175L600.149 754.227" stroke="white" stroke-width="2" stroke-miterlimit="10"/>
<path opacity="0.77" d="M917.393 454.175L617.375 754.227" stroke="white" stroke-width="2" stroke-miterlimit="10"/>
<path opacity="0.77" d="M934.642 454.175L634.624 754.227" stroke="white" stroke-width="2" stroke-miterlimit="10"/>
<path opacity="0.77" d="M951.89 454.175L651.872 754.227" stroke="white" stroke-width="2" stroke-miterlimit="10"/>
<path opacity="0.77" d="M969.139 454.175L669.121 754.227" stroke="white" stroke-width="2" stroke-miterlimit="10"/>
<path opacity="0.77" d="M986.365 454.175L686.347 754.227" stroke="white" stroke-width="2" stroke-miterlimit="10"/>
<path opacity="0.77" d="M1003.61 454.175L703.596 754.227" stroke="white" stroke-width="2" stroke-miterlimit="10"/>
</g>
</g>
<g opacity="0.81">
<g opacity="0.81">
<path opacity="0.81" d="M1331.46 663.953L619.44 1376.05" stroke="white" stroke-width="2" stroke-miterlimit="10"/>
<path opacity="0.81" d="M1348.49 663.953L636.473 1376.05" stroke="white" stroke-width="2" stroke-miterlimit="10"/>
<path opacity="0.81" d="M1365.55 663.953L653.507 1376.05" stroke="white" stroke-width="2" stroke-miterlimit="10"/>
<path opacity="0.81" d="M1382.58 663.953L670.562 1376.05" stroke="white" stroke-width="2" stroke-miterlimit="10"/>
<path opacity="0.81" d="M1399.62 663.953L687.595 1376.05" stroke="white" stroke-width="2" stroke-miterlimit="10"/>
<path opacity="0.81" d="M1416.67 663.953L704.628 1376.05" stroke="white" stroke-width="2" stroke-miterlimit="10"/>
<path opacity="0.81" d="M1433.7 663.953L721.683 1376.05" stroke="white" stroke-width="2" stroke-miterlimit="10"/>
<path opacity="0.81" d="M1450.74 663.953L738.716 1376.05" stroke="white" stroke-width="2" stroke-miterlimit="10"/>
<path opacity="0.81" d="M1467.79 663.953L755.771 1376.05" stroke="white" stroke-width="2" stroke-miterlimit="10"/>
<path opacity="0.81" d="M1484.83 663.953L772.804 1376.05" stroke="white" stroke-width="2" stroke-miterlimit="10"/>
<path opacity="0.81" d="M1501.88 663.953L789.838 1376.05" stroke="white" stroke-width="2" stroke-miterlimit="10"/>
<path opacity="0.81" d="M1518.91 663.953L806.892 1376.05" stroke="white" stroke-width="2" stroke-miterlimit="10"/>
<path opacity="0.81" d="M1535.95 663.953L823.926 1376.05" stroke="white" stroke-width="2" stroke-miterlimit="10"/>
<path opacity="0.81" d="M1553 663.953L840.959 1376.05" stroke="white" stroke-width="2" stroke-miterlimit="10"/>
<path opacity="0.81" d="M1570.03 663.953L858.014 1376.05" stroke="white" stroke-width="2" stroke-miterlimit="10"/>
<path opacity="0.81" d="M1587.07 663.953L875.047 1376.05" stroke="white" stroke-width="2" stroke-miterlimit="10"/>
<path opacity="0.81" d="M1604.12 663.953L892.08 1376.05" stroke="white" stroke-width="2" stroke-miterlimit="10"/>
<path opacity="0.81" d="M1621.16 663.953L909.135 1376.05" stroke="white" stroke-width="2" stroke-miterlimit="10"/>
<path opacity="0.81" d="M1638.19 663.953L926.168 1376.05" stroke="white" stroke-width="2" stroke-miterlimit="10"/>
<path opacity="0.81" d="M1655.24 663.953L943.223 1376.05" stroke="white" stroke-width="2" stroke-miterlimit="10"/>
<path opacity="0.81" d="M1672.28 663.953L960.256 1376.05" stroke="white" stroke-width="2" stroke-miterlimit="10"/>
<path opacity="0.81" d="M1689.33 663.953L977.29 1376.05" stroke="white" stroke-width="2" stroke-miterlimit="10"/>
<path opacity="0.81" d="M1706.37 663.953L994.344 1376.05" stroke="white" stroke-width="2" stroke-miterlimit="10"/>
<path opacity="0.81" d="M1723.4 663.953L1011.38 1376.05" stroke="white" stroke-width="2" stroke-miterlimit="10"/>
<path opacity="0.81" d="M1740.45 663.953L1028.41 1376.05" stroke="white" stroke-width="2" stroke-miterlimit="10"/>
<path opacity="0.81" d="M1757.49 663.953L1045.47 1376.05" stroke="white" stroke-width="2" stroke-miterlimit="10"/>
<path opacity="0.81" d="M1774.52 663.953L1062.5 1376.05" stroke="white" stroke-width="2" stroke-miterlimit="10"/>
<path opacity="0.81" d="M1791.57 663.953L1079.53 1376.05" stroke="white" stroke-width="2" stroke-miterlimit="10"/>
<path opacity="0.81" d="M1808.61 663.953L1096.59 1376.05" stroke="white" stroke-width="2" stroke-miterlimit="10"/>
<path opacity="0.81" d="M1825.64 663.953L1113.62 1376.05" stroke="white" stroke-width="2" stroke-miterlimit="10"/>
<path opacity="0.81" d="M1842.7 663.953L1130.68 1376.05" stroke="white" stroke-width="2" stroke-miterlimit="10"/>
<path opacity="0.81" d="M1859.73 663.953L1147.71 1376.05" stroke="white" stroke-width="2" stroke-miterlimit="10"/>
<path opacity="0.81" d="M1876.78 663.953L1164.74 1376.05" stroke="white" stroke-width="2" stroke-miterlimit="10"/>
<path opacity="0.81" d="M1893.82 663.953L1181.8 1376.05" stroke="white" stroke-width="2" stroke-miterlimit="10"/>
<path opacity="0.81" d="M1910.85 663.953L1198.83 1376.05" stroke="white" stroke-width="2" stroke-miterlimit="10"/>
<path opacity="0.81" d="M1927.91 663.953L1215.86 1376.05" stroke="white" stroke-width="2" stroke-miterlimit="10"/>
<path opacity="0.81" d="M1944.94 663.953L1232.92 1376.05" stroke="white" stroke-width="2" stroke-miterlimit="10"/>
<path opacity="0.81" d="M1961.97 663.953L1249.95 1376.05" stroke="white" stroke-width="2" stroke-miterlimit="10"/>
<path opacity="0.81" d="M1979.03 663.953L1266.98 1376.05" stroke="white" stroke-width="2" stroke-miterlimit="10"/>
<path opacity="0.81" d="M1996.06 663.953L1284.04 1376.05" stroke="white" stroke-width="2" stroke-miterlimit="10"/>
<path opacity="0.81" d="M2013.09 663.953L1301.07 1376.05" stroke="white" stroke-width="2" stroke-miterlimit="10"/>
<path opacity="0.81" d="M2030.15 663.953L1318.13 1376.05" stroke="white" stroke-width="2" stroke-miterlimit="10"/>
<path opacity="0.81" d="M2047.18 663.953L1335.16 1376.05" stroke="white" stroke-width="2" stroke-miterlimit="10"/>
<path opacity="0.81" d="M2064.24 663.953L1352.19 1376.05" stroke="white" stroke-width="2" stroke-miterlimit="10"/>
<path opacity="0.81" d="M2081.27 663.953L1369.25 1376.05" stroke="white" stroke-width="2" stroke-miterlimit="10"/>
</g>
</g>
<g opacity="0.72">
<path opacity="0.5" d="M-119.707 295.059L-457.31 632.7L-119.707 970.341L217.897 632.7L-119.707 295.059Z" stroke="white" stroke-width="50" stroke-miterlimit="10"/>
<path opacity="0.5" d="M1527.69 -42.5749L1190.09 295.066L1527.69 632.707L1865.3 295.066L1527.69 -42.5749Z" stroke="white" stroke-width="50" stroke-miterlimit="10"/>
<path opacity="0.5" d="M721.192 759.271L383.588 1096.91L721.192 1434.55L1058.8 1096.91L721.192 759.271Z" stroke="white" stroke-width="30" stroke-miterlimit="10"/>
</g>
<path opacity="0.5" d="M86.1178 663.544C118.184 695.614 118.184 747.623 86.1178 779.715L-271.237 1137.11C-303.303 1169.18 -355.307 1169.18 -387.395 1137.11C-419.461 1105.04 -419.461 1053.03 -387.395 1020.94L-30.0397 663.544C2.04822 631.474 54.0513 631.474 86.1178 663.544Z" fill="url(#paint1_linear_66_13754)"/>
<path opacity="0.5" d="M460.807 630.85C495.669 665.717 495.669 722.221 460.807 757.087L92.4191 1125.49C57.5568 1160.36 1.05884 1160.36 -33.8035 1125.49C-68.6658 1090.63 -68.6658 1034.12 -33.8035 999.258L334.563 630.85C369.425 595.984 425.945 595.984 460.807 630.85Z" fill="url(#paint2_linear_66_13754)"/>
<path opacity="0.5" d="M447.408 873.387C464.011 889.992 464.011 916.899 447.408 933.483L280.431 1100.48C263.827 1117.08 236.923 1117.08 220.341 1100.48C203.738 1083.87 203.738 1056.97 220.341 1040.38L387.319 873.387C403.922 856.803 430.827 856.803 447.408 873.387Z" fill="url(#paint3_linear_66_13754)"/>
<path opacity="0.5" d="M310.518 784.017C332.713 806.235 332.713 842.242 310.518 864.439L-21.3081 1196.3C-43.5245 1218.52 -79.5266 1218.52 -101.722 1196.3C-123.916 1174.08 -123.916 1138.08 -101.722 1115.88L230.105 784.017C252.3 761.798 288.302 761.798 310.518 784.017Z" fill="url(#paint4_linear_66_13754)"/>
<path opacity="0.5" d="M1170.72 428.364C1135.86 393.498 1135.86 336.994 1170.72 302.128L1539.09 -66.2794C1573.95 -101.146 1630.45 -101.146 1665.31 -66.2794C1700.17 -31.4133 1700.17 25.091 1665.31 59.9572L1296.94 428.364C1262.08 463.209 1205.58 463.209 1170.72 428.364Z" fill="url(#paint5_linear_66_13754)"/>
<path opacity="0.5" d="M1163.9 121.968C1147.3 105.363 1147.3 78.455 1163.9 61.8716L1330.88 -105.125C1347.48 -121.73 1374.39 -121.73 1390.97 -105.125C1407.57 -88.5198 1407.57 -61.612 1390.97 -45.0285L1223.99 121.968C1207.41 138.551 1180.51 138.551 1163.9 121.968Z" fill="url(#paint6_linear_66_13754)"/>
<path opacity="0.5" d="M1435.77 430.193C1419.17 413.588 1419.17 386.68 1435.77 370.096L1602.75 203.1C1619.35 186.495 1646.25 186.495 1662.84 203.1C1679.44 219.705 1679.44 246.613 1662.84 263.196L1495.86 430.193C1479.26 446.798 1452.35 446.798 1435.77 430.193Z" fill="url(#paint7_linear_66_13754)"/>
<g opacity="0.49">
<path opacity="0.49" d="M269.161 121.193C274.007 121.193 277.936 117.264 277.936 112.418C277.936 107.571 274.007 103.642 269.161 103.642C264.315 103.642 260.386 107.571 260.386 112.418C260.386 117.264 264.315 121.193 269.161 121.193Z" stroke="white" stroke-width="2" stroke-miterlimit="10" stroke-linecap="round" stroke-linejoin="round"/>
<path opacity="0.49" d="M869.498 708.305C869.498 713.144 865.562 717.08 860.723 717.08C855.884 717.08 851.949 713.144 851.949 708.305C851.949 703.465 855.884 699.529 860.723 699.529C865.562 699.529 869.498 703.465 869.498 708.305Z" stroke="white" stroke-width="2" stroke-miterlimit="10" stroke-linecap="round" stroke-linejoin="round"/>
<path opacity="0.49" d="M595.116 274.747C595.116 279.586 591.18 283.522 586.341 283.522C581.502 283.522 577.567 279.586 577.567 274.747C577.567 269.907 581.502 265.971 586.341 265.971C591.202 265.971 595.116 269.886 595.116 274.747Z" stroke="white" stroke-width="2" stroke-miterlimit="10" stroke-linecap="round" stroke-linejoin="round"/>
<path opacity="0.49" d="M67.2135 303.504C67.2135 308.344 63.2778 312.28 58.4388 312.28C53.5998 312.28 49.6641 308.344 49.6641 303.504C49.6641 298.665 53.5998 294.729 58.4388 294.729C63.2778 294.729 67.2135 298.665 67.2135 303.504Z" stroke="white" stroke-width="2" stroke-miterlimit="10" stroke-linecap="round" stroke-linejoin="round"/>
<g opacity="0.49">
<path opacity="0.49" d="M758.911 187.592V202.949" stroke="white" stroke-width="2" stroke-miterlimit="10" stroke-linecap="round" stroke-linejoin="round"/>
<path opacity="0.49" d="M766.589 195.271H751.255" stroke="white" stroke-width="2" stroke-miterlimit="10" stroke-linecap="round" stroke-linejoin="round"/>
</g>
<g opacity="0.49">
<path opacity="0.49" d="M1404.2 700.647V715.983" stroke="white" stroke-width="2" stroke-miterlimit="10" stroke-linecap="round" stroke-linejoin="round"/>
<path opacity="0.49" d="M1411.87 708.305H1396.54" stroke="white" stroke-width="2" stroke-miterlimit="10" stroke-linecap="round" stroke-linejoin="round"/>
</g>
<g opacity="0.49">
<path opacity="0.49" d="M321.788 561.699V577.035" stroke="white" stroke-width="2" stroke-miterlimit="10" stroke-linecap="round" stroke-linejoin="round"/>
<path opacity="0.49" d="M329.466 569.356H314.132" stroke="white" stroke-width="2" stroke-miterlimit="10" stroke-linecap="round" stroke-linejoin="round"/>
</g>
<g opacity="0.49">
<g opacity="0.49">
<path opacity="0.49" d="M1106.01 884.077V899.413" stroke="white" stroke-width="2" stroke-miterlimit="10" stroke-linecap="round" stroke-linejoin="round"/>
<path opacity="0.49" d="M1113.66 891.734H1098.33" stroke="white" stroke-width="2" stroke-miterlimit="10" stroke-linecap="round" stroke-linejoin="round"/>
</g>
<g opacity="0.49">
<path opacity="0.49" d="M1059.64 884.077V899.413" stroke="white" stroke-width="2" stroke-miterlimit="10" stroke-linecap="round" stroke-linejoin="round"/>
<path opacity="0.49" d="M1067.3 891.734H1051.96" stroke="white" stroke-width="2" stroke-miterlimit="10" stroke-linecap="round" stroke-linejoin="round"/>
</g>
<g opacity="0.49">
<path opacity="0.49" d="M1013.27 884.077V899.413" stroke="white" stroke-width="2" stroke-miterlimit="10" stroke-linecap="round" stroke-linejoin="round"/>
<path opacity="0.49" d="M1020.93 891.734H1005.59" stroke="white" stroke-width="2" stroke-miterlimit="10" stroke-linecap="round" stroke-linejoin="round"/>
</g>
</g>
<g opacity="0.49">
<g opacity="0.49">
<path opacity="0.49" d="M67.2134 197.938V213.274" stroke="white" stroke-width="2" stroke-miterlimit="10" stroke-linecap="round" stroke-linejoin="round"/>
<path opacity="0.49" d="M74.8698 205.617H59.5356" stroke="white" stroke-width="2" stroke-miterlimit="10" stroke-linecap="round" stroke-linejoin="round"/>
</g>
<g opacity="0.49">
<path opacity="0.49" d="M20.8452 197.938V213.274" stroke="white" stroke-width="2" stroke-miterlimit="10" stroke-linecap="round" stroke-linejoin="round"/>
<path opacity="0.49" d="M28.523 205.617H13.1672" stroke="white" stroke-width="2" stroke-miterlimit="10" stroke-linecap="round" stroke-linejoin="round"/>
</g>
</g>
<path opacity="0.49" d="M504.143 517.347L516.079 496.677H492.207L504.143 517.347Z" stroke="white" stroke-width="2" stroke-miterlimit="10" stroke-linecap="round" stroke-linejoin="round"/>
<path opacity="0.49" d="M1074.97 202.949L1063.04 223.62H1086.91L1074.97 202.949Z" stroke="white" stroke-width="2" stroke-miterlimit="10" stroke-linecap="round" stroke-linejoin="round"/>
<path opacity="0.49" d="M485.604 830.498C490.809 825.292 499.928 834.412 505.132 829.207C510.337 824.002 501.218 814.882 506.423 809.677C511.627 804.472 520.746 813.592 525.951 808.386C531.155 803.181 522.037 794.061 527.22 788.856C532.424 783.651 541.543 792.771 546.748 787.566C551.952 782.36 542.833 773.241 548.038 768.014C553.243 762.809 562.362 771.929 567.588 766.723" stroke="white" stroke-width="2" stroke-miterlimit="10" stroke-linecap="round" stroke-linejoin="round"/>
<path opacity="0.49" d="M938.943 787.974C944.148 782.769 953.267 791.889 958.471 786.684C963.676 781.478 954.557 772.359 959.762 767.154C964.966 761.948 974.085 771.068 979.29 765.863C984.494 760.658 975.376 751.538 980.559 746.333C985.763 741.127 994.882 750.247 1000.09 745.042C1005.29 739.837 996.173 730.717 1001.38 725.49C1006.58 720.285 1015.7 729.405 1020.93 724.2" stroke="white" stroke-width="2" stroke-miterlimit="10" stroke-linecap="round" stroke-linejoin="round"/>
<path opacity="0.49" d="M964.601 197.551C969.805 192.345 978.924 201.465 984.129 196.26C989.333 191.055 980.215 181.935 985.419 176.73C990.624 171.525 999.743 180.644 1004.95 175.439C1010.15 170.234 1001.03 161.114 1006.22 155.909C1011.42 150.704 1020.54 159.824 1025.74 154.619C1030.95 149.413 1021.83 140.293 1027.03 135.067C1032.24 129.862 1041.36 138.981 1046.58 133.776" stroke="white" stroke-width="2" stroke-miterlimit="10" stroke-linecap="round" stroke-linejoin="round"/>
</g>
</g>
<defs>
<linearGradient id="paint0_linear_66_13754" x1="55.0796" y1="-202.336" x2="1321.68" y2="1064.13" gradientUnits="userSpaceOnUse">
<stop stop-color="#57EE6A"/>
<stop offset="0.5154" stop-color="#2AE1A1"/>
<stop offset="1" stop-color="#00B8AD"/>
</linearGradient>
<linearGradient id="paint1_linear_66_13754" x1="86.1286" y1="663.55" x2="-387.435" y2="1137.06" gradientUnits="userSpaceOnUse">
<stop stop-color="white"/>
<stop offset="1" stop-opacity="0"/>
</linearGradient>
<linearGradient id="paint2_linear_66_13754" x1="460.797" y1="630.845" x2="-33.8506" y2="1125.44" gradientUnits="userSpaceOnUse">
<stop stop-color="white"/>
<stop offset="1" stop-opacity="0"/>
</linearGradient>
<linearGradient id="paint3_linear_66_13754" x1="447.416" y1="873.392" x2="220.31" y2="1100.47" gradientUnits="userSpaceOnUse">
<stop stop-color="white"/>
<stop offset="1" stop-opacity="0"/>
</linearGradient>
<linearGradient id="paint4_linear_66_13754" x1="337.879" y1="756.652" x2="152.427" y2="942.084" gradientUnits="userSpaceOnUse">
<stop stop-color="white"/>
<stop offset="1" stop-opacity="0"/>
</linearGradient>
<linearGradient id="paint5_linear_66_13754" x1="1170.72" y1="428.354" x2="1665.37" y2="-66.2382" gradientUnits="userSpaceOnUse">
<stop stop-color="white"/>
<stop offset="1" stop-opacity="0"/>
</linearGradient>
<linearGradient id="paint6_linear_66_13754" x1="1163.9" y1="121.957" x2="1391.01" y2="-105.123" gradientUnits="userSpaceOnUse">
<stop stop-color="white"/>
<stop offset="1" stop-opacity="0"/>
</linearGradient>
<linearGradient id="paint7_linear_66_13754" x1="1435.76" y1="430.189" x2="1662.86" y2="203.11" gradientUnits="userSpaceOnUse">
<stop stop-color="white"/>
<stop offset="1" stop-opacity="0"/>
</linearGradient>
<clipPath id="clip0_66_13754">
<rect width="1613" height="1069" fill="white" transform="translate(-86 -68)"/>
</clipPath>
</defs>
</svg>
