<svg width="739" height="198" viewBox="0 0 739 198" fill="none" xmlns="http://www.w3.org/2000/svg">
<path fill-rule="evenodd" clip-rule="evenodd" d="M28.3163 16.9499C30.467 7.05658 39.2224 0 49.3468 0H148.481C158.606 0 167.361 7.05659 169.512 16.9499L197.329 144.906C200.245 158.321 190.026 171 176.298 171H21.5302C7.80233 171 -2.41657 158.321 0.499625 144.906L28.3163 16.9499ZM67.3846 128.182C75.7477 136.545 87.0869 141.249 98.9141 141.261C110.741 141.249 122.081 136.545 130.444 128.182C138.807 119.819 143.51 108.479 143.523 96.6523C143.523 94.6804 142.74 92.7894 141.345 91.3951C139.951 90.0008 138.06 89.2175 136.088 89.2175C134.116 89.2175 132.225 90.0008 130.831 91.3951C129.437 92.7894 128.653 94.6804 128.653 96.6523C128.653 104.54 125.52 112.104 119.943 117.681C114.366 123.258 106.801 126.391 98.9141 126.391C91.0268 126.391 83.4625 123.258 77.8854 117.681C72.3082 112.104 69.175 104.54 69.175 96.6523C69.175 94.6804 68.3917 92.7894 66.9974 91.3951C65.6031 90.0008 63.712 89.2175 61.7402 89.2175C59.7684 89.2175 57.8773 90.0008 56.483 91.3951C55.0887 92.7894 54.3054 94.6804 54.3054 96.6523C54.3177 108.479 59.0215 119.819 67.3846 128.182ZM61 17C53.268 17 47 23.268 47 31C47 38.732 53.268 45 61 45H137C144.732 45 151 38.732 151 31C151 23.268 144.732 17 137 17H61Z" fill="url(#paint0_linear_518_4361)"/>
<path fill-rule="evenodd" clip-rule="evenodd" d="M416 85.5C416 132.72 377.72 171 330.5 171C314.199 171 298.963 166.438 286 158.521V198H245V88H245.036C245.012 87.1696 245 86.3362 245 85.5C245 38.2797 283.28 0 330.5 0C377.72 0 416 38.2797 416 85.5ZM330.5 133C356.734 133 378 111.734 378 85.5C378 59.2665 356.734 38 330.5 38C304.266 38 283 59.2665 283 85.5C283 111.734 304.266 133 330.5 133ZM516.5 171C563.72 171 602 132.72 602 85.5C602 38.2797 563.72 0 516.5 0C469.28 0 431 38.2797 431 85.5C431 132.72 469.28 171 516.5 171ZM516.5 133C542.734 133 564 111.734 564 85.5C564 59.2665 542.734 38 516.5 38C490.266 38 469 59.2665 469 85.5C469 111.734 490.266 133 516.5 133ZM678.943 171C716.969 171 738.015 147.323 738.015 121.015C738.015 87.4803 710.198 79.1211 686.274 71.932C668.227 66.5087 652.396 61.7514 652.396 47.3538C652.396 33.7217 662.201 27.2643 675.355 27.7427C689.705 27.9818 698.554 36.5916 699.271 47.593H736.102C733.95 17.4587 710.512 0 676.312 0C641.873 0 617.478 18.1762 617.478 48.3105C617.343 82.4549 644.701 90.4014 668.566 97.3334C686.993 102.686 703.337 107.433 703.337 123.168C703.337 135.126 694.01 143.497 678.225 143.497C662.68 143.497 653.831 134.648 652.874 121.255H617C617.478 152.824 644.264 171 678.943 171Z" fill="#424242"/>
<defs>
<linearGradient id="paint0_linear_518_4361" x1="38" y1="171" x2="167" y2="13.5" gradientUnits="userSpaceOnUse">
<stop stop-color="#1264E3"/>
<stop offset="1" stop-color="#72A9FF"/>
</linearGradient>
</defs>
</svg>
